# xmcd CD database file
#
# Track frame offsets:
#	150
#	21693
#	24406
#	45155
#	70686
#	94118
#	111741
#	127384
#	131908
#	148538
#	169198
#	188631
#
# Disc length: 2733 seconds
#
# Revision: 0
# Processed by: cddbd v1.4PL0 Copyright (c) Steve Scherf et al.
# Submitted via: CDex 1.50beta9
#
DISCID=b20aab0c
DTITLE=Alicia Dara - Alchemy
DYEAR=2001
DGENRE=Rhythmic Soul
TTITLE0=Animal
TTITLE1=Chuparrosa
TTITLE2=In The Temple
TTITLE3=Ghost Story
TTITLE4=Over My Bones (Archangel)
TTITLE5=Elizabeth
TTITLE6=I Keep Your Secret
TTITLE7=Sage
TTITLE8=Zen Horses
TTITLE9=The Doctor's Wife
TTITLE10=Raga
TTITLE11=Alchemy
EXTD=YEAR: 2001
EXTT0=
EXTT1=
EXTT2=
EXTT3=
EXTT4=
EXTT5=
EXTT6=
EXTT7=
EXTT8=
EXTT9=
EXTT10=
EXTT11=
PLAYORDER=
